# xmcd
#
# Track frame offsets: 
#        150
#        15601
#        34350
#        52188
#        69510
#        87593
#        99544
#        123094
#        145427
#        164754
#        180248
#        200577
#        216991
#
# Disc length: 3048 seconds
#
# Revision: 0
# Processed by: cddbd v1.5.2PL0 Copyright (c) Steve Scherf et al.
# Submitted via: ExactAudioCopy v1.3
#
DISCID=c40be60d
DTITLE=Tequila Band - Pēc svētdienas
DYEAR=2009
DGENRE=Latvian
TTITLE0=Pirmdiena
TTITLE1=Ormanis, Enģelis
TTITLE2=Muzikants
TTITLE3=Mazliet žēl
TTITLE4=Lēnām - mīla valda
TTITLE5=Ceļš
TTITLE6=C'est la vie (tāda ir dzīve)
TTITLE7=Atvaino, ikdiena
TTITLE8=Kaut kas par nakti
TTITLE9=Pilsēta
TTITLE10=Vārdi strautā
TTITLE11=Vienkārša dziesma
TTITLE12=The Road
EXTD=
EXTT0=
EXTT1=
EXTT2=
EXTT3=
EXTT4=
EXTT5=
EXTT6=
EXTT7=
EXTT8=
EXTT9=
EXTT10=
EXTT11=
EXTT12=
PLAYORDER=
